<?xml version="1.0" encoding="utf-8"?>
<!-- Generator: Adobe Illustrator 16.0.4, SVG Export Plug-In . SVG Version: 6.00 Build 0)  -->
<!DOCTYPE svg PUBLIC "-//W3C//DTD SVG 1.1//EN" "http://www.w3.org/Graphics/SVG/1.1/DTD/svg11.dtd">
<svg version="1.1" id="Layer_1" xmlns="http://www.w3.org/2000/svg" xmlns:xlink="http://www.w3.org/1999/xlink" x="0px" y="0px"
	 width="412px" height="301.779px" viewBox="0 0 412 301.779" enable-background="new 0 0 412 301.779" xml:space="preserve">
<path d="M263.055,219.334c10.301,0,19.002,12.01,19.002,26.224c0,14.213-8.701,26.221-19.002,26.221H49.001
	c-10.3,0-19.001-12.008-19.001-26.221c0-14.214,8.702-26.224,19.002-26.224H263.055z M263.055,189.333H49.002
	C21.938,189.333,0,214.506,0,245.558c0,31.049,21.938,56.222,49.001,56.222h214.054c27.062,0,49.002-25.173,49.002-56.222
	C312.057,214.506,290.117,189.333,263.055,189.333z"/>
<path d="M364.75,81.793c12.143,0,21.986,9.844,21.986,21.986c0,12.142-9.846,21.986-21.986,21.986
	c-12.143,0-21.986-9.844-21.986-21.986C342.764,91.637,352.607,81.793,364.75,81.793z M364.75,56.53
	c-26.055,0-47.25,21.195-47.25,47.25c0,26.053,21.195,47.25,47.25,47.25S412,129.832,412,103.78
	C412,77.725,390.804,56.53,364.75,56.53z"/>
<path d="M298.322,92.293c2.244-14.268,8.986-26.057,18.729-35.869C264.098,18.244,221.768,0,188.555,0c-70,0-120,59.5-147.5,169.333
	h229c-8.869-18.304-15-37.832-17.326-57.429c-11.506-1.959-32.381,0.182-42.672,3.43C231.055,95.446,270.516,91.461,298.322,92.293z
	"/>
</svg>
