<?xml version="1.0" encoding="utf-8"?>
<!-- Generator: Adobe Illustrator 16.0.4, SVG Export Plug-In . SVG Version: 6.00 Build 0)  -->
<!DOCTYPE svg PUBLIC "-//W3C//DTD SVG 1.1//EN" "http://www.w3.org/Graphics/SVG/1.1/DTD/svg11.dtd">
<svg version="1.1" id="Layer_1" xmlns="http://www.w3.org/2000/svg" xmlns:xlink="http://www.w3.org/1999/xlink" x="0px" y="0px"
	 width="371.07px" height="412px" viewBox="0 0 371.07 412" enable-background="new 0 0 371.07 412" xml:space="preserve">
<polygon id="christmas-snowflake-icon" fill="#FFFFFF" points="371.07,296.644 303.49,257.624 368.232,240.354 360.877,212.782 
	268.502,237.424 214.07,205.999 269.025,174.271 360.834,199.242 368.322,171.705 303.846,154.168 371.07,115.356 356.801,90.644 
	289.221,129.66 306.635,64.956 279.08,57.541 254.232,149.861 199.805,181.285 199.805,117.831 267.332,50.809 247.23,30.554 
	199.805,77.624 199.805,0 171.267,0 171.267,78.036 123.939,30.604 103.738,50.76 171.267,118.438 171.267,181.286 116.314,149.558 
	92.033,57.565 64.441,64.847 81.492,129.455 14.267,90.644 0,115.356 67.58,154.373 2.838,171.645 10.195,199.218 102.57,174.574 
	157,205.999 102.045,237.727 10.236,212.758 2.746,240.293 67.223,257.832 0,296.644 14.267,321.356 81.847,282.337 64.433,347.042 
	91.992,354.459 116.838,262.137 171.267,230.711 171.267,294.169 103.738,361.191 123.842,381.446 171.267,334.376 171.267,412 
	199.805,412 199.805,333.964 247.133,381.396 267.332,361.24 199.805,293.562 199.805,230.712 254.758,262.439 279.037,354.435 
	306.629,347.15 289.578,282.545 356.803,321.356 "/>
</svg>
