<svg xmlns="http://www.w3.org/2000/svg" width="412" height="301.779" viewBox="0 0 412 301.779"><path d="M263.055 219.334c10.301 0 19.002 12.01 19.002 26.224 0 14.213-8.701 26.221-19.002 26.221h-214.054c-10.3 0-19.001-12.008-19.001-26.221 0-14.214 8.702-26.224 19.002-26.224h214.053zm0-30.001h-214.053c-27.064 0-49.002 25.173-49.002 56.225 0 31.049 21.938 56.222 49.001 56.222h214.054c27.062 0 49.002-25.173 49.002-56.222 0-31.052-21.94-56.225-49.002-56.225z"/><path d="M364.75 81.793c12.143 0 21.986 9.844 21.986 21.986 0 12.142-9.846 21.986-21.986 21.986-12.143 0-21.986-9.844-21.986-21.986 0-12.142 9.843-21.986 21.986-21.986zm0-25.263c-26.055 0-47.25 21.195-47.25 47.25 0 26.053 21.195 47.25 47.25 47.25s47.25-21.198 47.25-47.25c0-26.055-21.196-47.25-47.25-47.25z"/><path d="M298.322 92.293c2.244-14.268 8.986-26.057 18.729-35.869-52.953-38.18-95.283-56.424-128.496-56.424-70 0-120 59.5-147.5 169.333h229c-8.869-18.304-15-37.832-17.326-57.429-11.506-1.959-32.381.182-42.672 3.43 20.998-19.888 60.459-23.873 88.265-23.041z"/></svg>