<svg xmlns="http://www.w3.org/2000/svg" width="371.07" height="412" viewBox="0 0 371.07 412"><path fill="#fff" d="M371.07 296.644l-67.58-39.02 64.742-17.27-7.355-27.572-92.375 24.642-54.432-31.425 54.955-31.728 91.809 24.971 7.488-27.537-64.476-17.537 67.224-38.812-14.269-24.712-67.58 39.016 17.414-64.704-27.555-7.415-24.848 92.32-54.427 31.424v-63.454l67.527-67.022-20.102-20.255-47.425 47.07v-77.624h-28.538v78.036l-47.328-47.432-20.201 20.156 67.529 67.678v62.848l-54.953-31.728-24.281-91.993-27.592 7.282 17.051 64.608-67.225-38.811-14.267 24.712 67.58 39.017-64.742 17.272 7.357 27.573 92.375-24.644 54.43 31.425-54.955 31.728-91.809-24.969-7.49 27.535 64.477 17.539-67.223 38.812 14.267 24.712 67.58-39.019-17.414 64.705 27.559 7.417 24.846-92.322 54.429-31.426v63.458l-67.529 67.022 20.104 20.255 47.425-47.07v77.624h28.538v-78.036l47.328 47.432 20.199-20.156-67.527-67.678v-62.85l54.953 31.727 24.279 91.996 27.592-7.285-17.051-64.605 67.225 38.811z"/></svg>